# xmcd
#
# Track frame offsets:
#	183
#	18473
#	38555
#
# Disc length: 906 seconds
# Revision: 1
# Processed by: cddbd v1.5.2PL0 Copyright (c) Steve Scherf et al.
# Submitted via: dBpowerAMP V12.0
#
DISCID=18038803
DTITLE=Cathy Dennis - Just Another Dream
DYEAR=1990
DGENRE=House
TTITLE0=Just Another Dream [7"]
TTITLE1=Just Another Dream [Hot Mix]
TTITLE2=Just Another Dream [Club Mix]
EXTD=
EXTT0=
EXTT1=
EXTT2=
PLAYORDER=
